**ABCDEFGHIJKLMNOPQRSTUVWXYZabcdefghijklmnopqrstuvwxyz**************************
**PARASOLID !"#$%&'()*+,-./:;<=>?@[\]^_`{|}~0123456789**************************
**PART1;
MC=AMD64;
MC_MODEL=Intel64 Family 6 Model 94 Stepping 3, GenuineIntel;
MC_ID=unknown;
OS=Windows_NT;
OS_RELEASE=unknown;
FRU=Parasolid Version 28.0, build 209,  1-25-2016;
APPL=SOLIDWORKS 2016-2016095;
SITE=;
USER=unknown;
FORMAT=text;
GUISE=transmit;
KEY=l4;
FILE=l4.x_t;
DATE=Thu Jun 15 21:57:04 2017;
**PART2;
SCH=SCH_2800209_28002;
USFLD_SIZE=0;
**PART3;
**END_OF_HEADER*****************************************************************
T51 : TRANSMIT FILE created by modeller version 280020917 SCH_2500000_250010 10
 1 6 0 0 0 0 0 0 0 1e3 1e-8 0 0 0 1 0 1 2 11 2 5 0 1 3 4 1 5 0 0 0 12 3 6504 6 7
 0 0 0 0 1e3 1e-8 2 8 0 1 0 1 1 9 10 11 0 12 13 0 0 0 0 0 0 0 100 4 6 2 0 0 -1 -
1642607485558505e-31 -2872702076217595e-30 287270207621759e-29 417688713449408e-
30 -1 164260748555852e-30 -1 -417688713449408e-30 1332267629550188e-30 104083408
5586084e-30 .01978677639046535 1 3 ?11 5 3 0 1 8 14 1 15 2 0 0 12 8 6504 16 17 0
 0 0 0 1e3 1e-8 5 18 3 1 0 1 1 19 20 21 0 22 23 0 0 0 0 0 0 0 100 14 4 5 0 0 -1
 2378328279158615e-31 4024558464266195e-30 -4024558464266195e-30 831634978040704
e-30 -1 -237832827915865e-30 -1 -831634978040703e-30 .19 -1887379141862765e-30 .
0197867763904654 1 3 ?11 15 1 0 1 18 24 1 0 5 0 0 12 18 1244 25 26 0 0 0 0 1e3 1
e-8 15 27 8 1 0 1 1 28 29 30 31 32 33 34 0 0 0 0 0 0 100 24 2 15 0 0 -1 -3747002
708109905e-31 -277248893974355e-30 3747002708109905e-31 -1 -835611291586289e-30
 -277248893974355e-30 -835611291586289e-30 1 .095 -1110223024625156e-31 -.003 1
 3 ?81 1 25 1244 35 18 36 0 0 0 37 70 26 0 4 T18 0 0 10 20 1 38 38 13 28 658 0 1
8 0 39 0 0 40 0 51 29 657 0 39 41 0 0 +.0749289321881345 -.013 .006 0 0 -1 .005
 -1 0 0 30 30 629 0 33 42 0 0 +.0784644660940673 -.00946446609406725 .006 0 0 -1
 29 31 498 0 43 44 0 .0749289321881345 -.008 0 19 32 199 0 18 40 0 45 V0 16 33 5
37 0 ?46 0 47 30 0 0 18 18 34 194 0 48 0 49 50 ?18 17 48 0 51 52 53 34 54 55 0 5
6 +18 49 191 0 57 34 58 59 ?18 29 50 196 0 34 59 60 .0749289321881345 -.008 .006
 29 59 193 0 49 61 50 -.0749289321881345 -.008 .006 29 60 517 0 62 50 63 .078464
4660940673 -.00946446609406725 0 18 62 468 0 64 65 0 60 ?18 29 63 516 0 65 60 66
 .087 -.018 0 18 65 467 0 67 68 62 63 ?18 29 66 515 0 68 63 69 .103 -.018 0 18 6
8 466 0 70 71 65 66 ?18 29 69 514 0 71 66 72 .113 -.008 0 18 71 465 0 73 74 68 6
9 ?18 29 72 513 0 74 69 75 .113 .008 0 18 74 464 0 76 77 71 72 ?18 29 75 512 0 7
7 72 78 .103 .018 0 18 77 463 0 79 80 74 75 ?18 29 78 511 0 80 75 81 .087 .018 0
 18 80 462 0 82 83 77 78 ?18 29 81 510 0 83 78 84 .0784644660940672 .00946446609
406729 0 18 83 461 0 85 86 80 81 ?18 29 84 509 0 86 81 87 .0749289321881345 .008
 0 18 86 460 0 88 89 83 84 ?18 29 87 508 0 89 84 90 -.0749289321881344 .008 0 18
 89 459 0 91 92 86 87 ?18 29 90 507 0 92 87 93 -.0784644660940672 .0094644660940
6727 0 18 92 458 0 94 95 89 90 ?18 29 93 506 0 95 90 96 -.087 .018 0 18 95 457 0
 97 98 92 93 ?18 29 96 505 0 98 93 99 -.103 .018 0 18 98 456 0 100 101 95 96 ?18
 29 99 504 0 101 96 102 -.113 .008 0 18 101 455 0 103 104 98 99 ?18 29 102 503 0
 104 99 105 -.113 -.008 0 18 104 454 0 106 107 101 102 ?18 29 105 502 0 107 102
 108 -.103 -.018 0 18 107 453 0 109 110 104 105 ?18 29 108 501 0 110 105 111 -.0
87 -.018 0 18 110 452 0 112 113 107 108 ?18 29 111 500 0 113 108 44 -.0784644660
940672 -.00946446609406727 0 18 113 451 0 114 115 110 111 ?18 29 44 499 0 115 11
1 31 -.0749289321881345 -.008 0 18 115 450 0 116 43 113 44 ?18 17 116 0 117 118
 54 115 57 119 0 120 +18 43 449 0 118 121 115 31 ?18 17 118 0 117 56 116 43 120
 122 0 123 +18 121 137 0 124 125 43 126 ?18 17 124 0 127 46 128 121 129 130 0 52
 -18 125 140 0 129 131 121 132 ?18 29 126 139 0 121 0 132 .0784644660940673 -.00
946446609406725 .006 29 132 142 0 125 126 133 .087 -.018 .006 29 133 145 0 131 1
32 134 .103 -.018 .006 18 131 143 0 135 136 125 133 ?18 29 134 148 0 136 133 137
 .113 -.008 .006 18 136 146 0 138 139 131 134 ?18 29 137 151 0 139 134 140 .113
 .008 .006 18 139 149 0 141 142 136 137 ?18 29 140 154 0 142 137 143 .103 .018 .
006 18 142 152 0 144 145 139 140 ?18 29 143 157 0 145 140 146 .087 .018 .006 18
 145 155 0 147 148 142 143 ?18 29 146 160 0 148 143 149 .0784644660940672 .00946
446609406729 .006 18 148 158 0 150 151 145 146 ?18 29 149 163 0 151 146 152 .074
9289321881345 .008 .006 18 151 161 0 153 154 148 149 ?18 29 152 166 0 154 149 15
5 -.0749289321881344 .008 .006 18 154 164 0 156 157 151 152 ?18 29 155 169 0 157
 152 158 -.0784644660940672 .00946446609406727 .006 18 157 167 0 159 160 154 155
 ?18 29 158 172 0 160 155 161 -.087 .018 .006 18 160 170 0 162 163 157 158 ?18 2
9 161 175 0 163 158 164 -.103 .018 .006 18 163 173 0 165 166 160 161 ?18 29 164
 178 0 166 161 167 -.113 .008 .006 18 166 176 0 168 169 163 164 ?18 29 167 181 0
 169 164 170 -.113 -.008 .006 18 169 179 0 171 172 166 167 ?18 29 170 184 0 172
 167 173 -.103 -.018 .006 18 172 182 0 174 175 169 170 ?18 29 173 187 0 175 170
 61 -.087 -.018 .006 18 175 185 0 176 58 172 173 ?18 29 61 190 0 58 173 59 -.078
4644660940672 -.00946446609406727 .006 18 58 188 0 177 49 175 61 ?18 17 177 0 17
8 179 180 58 114 181 0 182 -15 178 574 0 180 183 0 17 179 0 178 112 177 175 182
 184 0 0 +17 180 0 178 177 112 113 185 186 0 187 -17 114 0 188 189 190 113 177 1
81 0 180 +16 181 520 0 ?114 191 119 192 0 0 18 17 182 0 51 53 176 58 179 184 0 1
90 -15 51 4 0 52 193 194 17 53 0 51 48 182 49 190 195 0 0 -17 176 0 51 182 174 1
75 196 197 0 198 +16 184 92 0 ?179 195 197 199 0 0 18 17 190 0 188 114 57 58 53
 195 0 0 +15 188 572 0 189 200 0 17 57 0 188 190 189 49 116 119 0 54 -16 195 97
 0 ?190 55 184 201 0 0 18 16 55 101 0 ?48 202 195 203 0 0 18 31 201 98 0 195 199
 203 0 +-.0749289321881345 -.013 .006 0 0 1 1 0 0 .005 30 199 93 0 184 204 201 0
 +-.0345 .0345 .006 -.707106781186547 -.707106781186548 0 30 203 102 0 55 201 20
5 0 +0 -.008 .006 1 0 0 31 205 106 0 202 203 206 0 -.081 12490009027033e-29 .006
 0 0 1 1 0 0 .001499999999999982 16 202 105 0 ?207 208 55 205 0 0 18 31 206 110
 0 208 205 209 0 -.109 -4163336342344335e-32 .006 0 0 1 1 0 0 .00149999999999998
2 16 208 109 0 ?210 211 202 206 0 0 18 31 209 114 0 211 206 212 0 --.109 -416333
6342344335e-32 .006 0 0 1 1 0 0 .00149999999999994 16 211 113 0 ?213 214 208 209
 0 0 18 31 212 118 0 214 209 215 0 +-.095 .014 .006 0 0 1 1 0 0 .0015 16 214 117
 0 ?216 217 211 212 0 0 18 31 215 122 0 217 212 218 0 +-.095 -.014 .006 0 0 1 1
 0 0 .0015 16 217 121 0 ?219 220 214 215 0 0 18 31 218 126 0 220 215 221 0 --.08
1 12490009027033e-29 .006 0 0 1 1 0 0 .001499999999999706 16 220 125 0 ?222 223
 217 218 0 0 18 31 221 130 0 223 218 224 0 -.095 -.014 .006 0 0 1 1 0 0 .0014999
99999999706 16 223 129 0 ?225 226 220 221 0 0 18 31 224 134 0 226 221 227 0 -.09
5 .014 .006 0 0 1 1 0 0 .0015 16 226 133 0 ?228 229 223 224 0 0 18 31 227 497 0
 230 224 231 0 -.0749289321881345 -.013 0 0 0 1 1 0 0 .005 16 230 444 0 ?232 233
 234 227 0 0 18 30 231 496 0 233 227 235 0 +.0345 .0345 0 .707106781186547 -.707
106781186548 0 16 233 436 0 ?236 237 230 231 0 0 18 30 235 495 0 237 231 238 0 +
0 -.018 0 -1 0 0 16 237 431 0 ?239 240 233 235 0 0 18 30 238 494 0 240 235 241 0
 +.0605 -.0605 0 -.707106781186548 -.707106781186548 0 16 240 424 0 ?242 243 237
 238 0 0 18 30 241 493 0 243 238 244 0 +.113 0 0 0 -1 0 16 243 418 0 ?245 246 24
0 241 0 0 18 30 244 492 0 246 241 247 0 +.0605 .0605 0 -.707106781186547 .707106
781186548 0 16 246 411 0 ?79 248 243 244 0 0 18 30 247 491 0 248 244 249 0 +0 .0
18 0 -1 0 0 16 248 406 0 ?250 251 246 247 0 0 18 30 249 490 0 251 247 252 0 +.03
45 -.0345 0 .707106781186548 .707106781186547 0 16 251 400 0 ?253 254 248 249 0
 0 18 31 252 489 0 254 249 255 0 +.0749289321881345 .013 0 0 0 1 1 0 0 .005 16 2
54 395 0 ?256 257 251 252 0 0 18 30 255 488 0 257 252 258 0 +833457028032418e-33
 .008 0 1 -104182128504052e-30 0 16 257 390 0 ?259 260 254 255 0 0 18 31 258 487
 0 260 255 261 0 --.0749289321881345 .013 0 0 0 1 1 0 0 .005 16 260 385 0 ?94 26
2 257 258 0 0 18 30 261 486 0 262 258 263 0 +-.0345 -.0345 0 -.707106781186548 .
707106781186547 0 16 262 380 0 ?264 265 260 261 0 0 18 30 263 485 0 265 261 266
 0 +0 .018 0 1 0 0 16 265 375 0 ?267 268 262 263 0 0 18 30 266 484 0 268 263 269
 0 +-.0605 .0605 0 .707106781186548 .707106781186548 0 16 268 369 0 ?270 271 265
 266 0 0 18 30 269 483 0 271 266 272 0 +-.113 0 0 0 -1 0 16 271 364 0 ?106 273 2
68 269 0 0 18 30 272 482 0 273 269 274 0 +-.0605 -.0605 0 .707106781186548 -.707
106781186548 0 16 273 358 0 ?109 275 271 272 0 0 18 30 274 481 0 275 272 276 0 +
0 -.018 0 1 0 0 16 275 353 0 ?277 186 273 274 0 0 18 30 276 480 0 186 274 278 0
 +-.0345 .0345 0 -.707106781186547 -.707106781186548 0 16 186 347 0 ?185 279 275
 276 0 0 18 31 278 479 0 279 276 280 0 +-.0749289321881345 -.013 0 0 0 1 1 0 0 .
005 16 279 342 0 ?187 122 186 278 0 0 18 30 280 478 0 122 278 281 0 +0 -.008 0 1
 0 0 16 122 337 0 ?118 282 279 280 0 0 18 31 281 477 0 282 280 283 0 -.081 12490
009027033e-29 0 0 0 1 1 0 0 .001499999999999982 16 282 332 0 ?284 285 122 281 0
 0 18 31 283 476 0 285 281 286 0 -.109 -4163336342344335e-32 0 0 0 1 1 0 0 .0014
99999999999982 16 285 327 0 ?287 288 282 283 0 0 18 31 286 475 0 288 283 289 0 -
-.109 -4163336342344335e-32 0 0 0 1 1 0 0 .00149999999999994 16 288 322 0 ?290 2
91 285 286 0 0 18 31 289 474 0 291 286 292 0 +-.095 .014 0 0 0 1 1 0 0 .0015 16
 291 317 0 ?293 294 288 289 0 0 18 31 292 473 0 294 289 295 0 +-.095 -.014 0 0 0
 1 1 0 0 .0015 16 294 312 0 ?296 297 291 292 0 0 18 31 295 472 0 297 292 298 0 -
-.081 12490009027033e-29 0 0 0 1 1 0 0 .001499999999999706 16 297 307 0 ?299 300
 294 295 0 0 18 31 298 471 0 300 295 301 0 -.095 -.014 0 0 0 1 1 0 0 .0014999999
99999706 16 300 302 0 ?302 303 297 298 0 0 18 31 301 470 0 303 298 304 0 -.095 .
014 0 0 0 1 1 0 0 .0015 16 303 297 0 ?305 306 300 301 0 0 18 30 304 610 0 229 30
1 307 0 +.0749289321881345 -.008 .006 0 0 -1 16 229 518 0 ?123 119 226 304 0 0 1
8 30 307 611 0 119 304 192 0 +-.0749289321881345 -.008 .006 0 0 -1 16 119 519 0
 ?116 181 229 307 0 0 18 30 192 612 0 181 307 308 0 +-.0784644660940672 -.009464
46609406727 .006 0 0 -1 30 308 613 0 191 192 309 0 +-.087 -.018 .006 0 0 -1 16 1
91 521 0 ?112 310 181 308 0 0 18 30 309 614 0 310 308 311 0 +-.103 -.018 .006 0
 0 -1 16 310 522 0 ?312 313 191 309 0 0 18 30 311 615 0 313 309 314 0 +-.113 -.0
08 .006 0 0 -1 16 313 523 0 ?315 316 310 311 0 0 18 30 314 616 0 316 311 317 0 +
-.113 .008 .006 0 0 -1 16 316 524 0 ?103 318 313 314 0 0 18 30 317 617 0 318 314
 319 0 +-.103 .018 .006 0 0 -1 16 318 525 0 ?100 320 316 317 0 0 18 30 319 618 0
 320 317 321 0 +-.087 .018 .006 0 0 -1 16 320 526 0 ?97 322 318 319 0 0 18 30 32
1 619 0 322 319 323 0 +-.0784644660940672 .00946446609406727 .006 0 0 -1 16 322
 527 0 ?324 325 320 321 0 0 18 30 323 620 0 325 321 326 0 +-.0749289321881344 .0
08 .006 0 0 -1 16 325 528 0 ?91 327 322 323 0 0 18 30 326 621 0 327 323 328 0 +.
0749289321881345 .008 .006 0 0 -1 16 327 529 0 ?88 329 325 326 0 0 18 30 328 622
 0 329 326 330 0 +.0784644660940672 .00946446609406729 .006 0 0 -1 16 329 530 0
 ?85 331 327 328 0 0 18 30 330 623 0 331 328 332 0 +.087 .018 .006 0 0 -1 16 331
 531 0 ?82 333 329 330 0 0 18 30 332 624 0 333 330 334 0 +.103 .018 .006 0 0 -1
 16 333 532 0 ?335 336 331 332 0 0 18 30 334 625 0 336 332 337 0 +.113 .008 .006
 0 0 -1 16 336 533 0 ?76 338 333 334 0 0 18 30 337 626 0 338 334 339 0 +.113 -.0
08 .006 0 0 -1 16 338 534 0 ?73 340 336 337 0 0 18 30 339 627 0 340 337 42 0 +.1
03 -.018 .006 0 0 -1 16 340 535 0 ?70 47 338 339 0 0 18 30 42 628 0 47 339 30 0
 +.087 -.018 .006 0 0 -1 16 47 536 0 ?67 33 340 42 0 0 18 17 67 0 341 342 343 65
 128 47 0 236 +15 341 604 0 342 344 0 17 342 0 341 135 67 68 239 237 0 242 -17 3
43 0 341 67 135 125 345 346 0 0 +17 128 0 127 124 236 125 67 47 0 343 -17 236 0
 127 128 46 65 64 233 0 239 +15 127 606 0 236 347 0 17 46 0 127 236 124 62 348 3
3 0 232 +17 64 0 349 350 239 62 236 233 0 46 -17 239 0 349 64 242 65 342 237 0 0
 +15 349 288 0 350 351 352 17 242 0 349 239 245 68 353 240 0 0 +17 245 0 349 242
 354 71 355 243 0 0 +17 353 0 356 138 70 71 242 240 0 245 -15 356 602 0 353 357
 0 17 138 0 356 358 353 136 73 338 0 359 -17 70 0 356 353 358 68 135 340 0 342 +
17 358 0 356 70 138 131 359 360 0 0 +17 135 0 341 343 342 131 70 340 0 345 -17 3
45 0 51 359 129 131 343 346 0 358 -17 359 0 51 361 345 136 358 360 0 362 -17 129
 0 51 345 52 125 124 130 0 128 +16 346 24 0 ?343 360 130 363 0 0 18 16 360 28 0
 ?358 364 346 365 0 0 18 16 130 17 0 ?129 346 306 366 0 0 18 30 363 25 0 346 366
 365 0 +0 -.018 .006 -1 0 0 30 366 18 0 130 367 363 0 +.0345 .0345 .006 .7071067
81186547 -.707106781186548 0 30 365 29 0 360 363 368 0 +.0605 -.0605 .006 -.7071
06781186548 -.707106781186548 0 30 368 35 0 364 365 369 0 +.113 0 .006 0 -1 0 16
 364 34 0 ?362 370 360 368 0 0 18 30 369 40 0 370 368 371 0 +.0605 .0605 .006 -.
707106781186547 .707106781186548 0 16 370 39 0 ?144 372 364 369 0 0 18 30 371 46
 0 372 369 373 0 +0 .018 .006 -1 0 0 16 372 45 0 ?147 374 370 371 0 0 18 30 373
 50 0 374 371 375 0 +.0345 -.0345 .006 .707106781186548 .707106781186547 0 16 37
4 49 0 ?376 377 372 373 0 0 18 31 375 55 0 377 373 378 0 +.0749289321881345 .013
 .006 0 0 1 1 0 0 .005 16 377 54 0 ?379 380 374 375 0 0 18 30 378 59 0 380 375 3
81 0 +833457028032418e-33 .008 .006 1 -104182128504052e-30 0 16 380 58 0 ?382 38
3 377 378 0 0 18 31 381 63 0 383 378 384 0 --.0749289321881345 .013 .006 0 0 1 1
 0 0 .005 16 383 62 0 ?159 385 380 381 0 0 18 30 384 67 0 385 381 386 0 +-.0345
 -.0345 .006 -.707106781186548 .707106781186547 0 16 385 66 0 ?162 387 383 384 0
 0 18 30 386 71 0 387 384 388 0 +0 .018 .006 1 0 0 16 387 70 0 ?389 390 385 386
 0 0 18 30 388 75 0 390 386 391 0 +-.0605 .0605 .006 .707106781186548 .707106781
186548 0 16 390 74 0 ?392 393 387 388 0 0 18 30 391 80 0 393 388 394 0 +-.113 0
 .006 0 -1 0 16 393 79 0 ?171 395 390 391 0 0 18 30 394 84 0 395 391 204 0 +-.06
05 -.0605 .006 .707106781186548 -.707106781186548 0 16 395 83 0 ?174 197 393 394
 0 0 18 30 204 89 0 197 394 199 0 +0 -.018 .006 1 0 0 16 197 88 0 ?176 184 395 2
04 0 0 18 17 174 0 51 176 171 172 396 395 0 397 +17 171 0 51 174 398 169 399 393
 0 400 +17 396 0 401 315 397 169 174 395 0 0 -17 397 0 401 396 109 172 312 310 0
 196 -15 401 578 0 109 402 0 17 109 0 401 397 315 107 403 273 0 312 +17 312 0 40
4 277 196 107 397 310 0 405 +17 196 0 404 312 198 172 176 197 0 0 -15 404 576 0
 277 406 0 17 198 0 404 196 277 175 112 191 0 179 -17 277 0 404 198 312 110 405
 275 0 185 +17 112 0 178 180 179 110 198 191 0 277 +17 405 0 349 403 185 107 277
 275 0 0 -17 185 0 349 405 187 110 180 186 0 0 +17 187 0 349 185 120 113 189 279
 0 0 +17 120 0 349 187 350 115 118 122 0 189 -17 189 0 188 57 114 115 187 279 0
 0 -17 350 0 349 120 64 43 232 230 0 0 -17 232 0 407 348 123 62 350 230 0 0 +15
 407 608 0 232 39 0 17 348 0 407 408 232 121 46 33 0 0 -17 123 0 407 232 408 43
 56 229 0 350 +17 408 0 407 123 348 34 52 306 0 0 -17 56 0 117 54 118 34 123 229
 0 408 -15 117 570 0 118 409 0 17 54 0 117 116 56 49 48 55 0 53 -14 409 571 410
 ?411 412 117 28 413 -0 0 411 412 45 81 1 410 1234 414 409 415 0 416 417 418 14
 411 539 417 ?193 409 419 28 420 -0 0 193 409 45 14 412 567 416 ?409 421 422 28
 423 -0 0 409 421 45 50 413 638 0 409 423 424 0 +0 -.008 .006 0 1 0 0 0 1 13 45
 200 0 0 0 0 0 0 32 39 14 39 609 425 ?347 0 407 28 29 -0 0 347 0 45 81 1 425 120
8 414 39 426 0 0 427 428 14 347 607 427 ?344 39 127 28 41 -0 0 344 39 45 81 1 42
7 1209 414 347 429 0 425 430 431 14 344 605 430 ?357 347 341 28 432 +0 0 357 347
 45 50 41 656 0 347 432 29 0 +.0345 .0345 .006 .707106781186548 .707106781186547
 0 -.707106781186547 .707106781186548 0 50 432 655 0 344 433 41 0 +0 -.018 .006
 0 -1 0 0 0 -1 50 433 654 0 357 434 432 0 +.0605 -.0605 .006 .707106781186547 -.
707106781186548 0 .707106781186548 .707106781186548 0 14 357 603 435 ?436 344 35
6 28 433 +0 0 436 344 45 50 434 653 0 436 437 433 0 +.113 0 .006 1 0 0 0 0 -1 14
 436 601 438 ?439 357 440 28 434 +0 0 439 357 45 50 437 652 0 439 441 434 0 +.06
05 .0605 .006 -.707106781186548 -.707106781186547 0 .707106781186547 -.707106781
186548 0 14 439 599 442 ?443 436 444 28 437 -0 0 443 436 45 50 441 651 0 443 445
 437 0 +0 .018 .006 0 -1 0 0 0 -1 14 443 597 446 ?447 439 448 28 441 -0 0 447 43
9 45 50 445 650 0 447 449 441 0 +.0345 -.0345 .006 -.707106781186547 .7071067811
86548 0 -.707106781186548 -.707106781186547 0 14 447 595 450 ?451 443 452 28 445
 +0 0 451 443 45 51 449 649 0 451 453 445 0 -.0749289321881345 .013 .006 0 0 -1
 .005 -1 0 0 14 451 593 454 ?455 447 456 28 449 +0 0 455 447 45 50 453 648 0 455
 457 449 0 +833457028032418e-33 .008 .006 104182128504052e-30 1 0 -1 10418212850
4052e-30 0 14 455 591 458 ?459 451 460 28 453 +0 0 459 451 45 51 457 647 0 459 4
61 453 0 +-.0749289321881345 .013 .006 0 0 -1 .005 -1 0 0 14 459 589 462 ?463 45
5 464 28 457 -0 0 463 455 45 50 461 646 0 463 465 457 0 +-.0345 -.0345 .006 -.70
7106781186547 -.707106781186548 0 .707106781186548 -.707106781186547 0 14 463 58
7 466 ?467 459 468 28 461 -0 0 467 459 45 50 465 645 0 467 469 461 0 +0 .018 .00
6 0 1 0 0 0 1 14 467 585 470 ?471 463 472 28 465 +0 0 471 463 45 50 469 644 0 47
1 473 465 0 +-.0605 .0605 .006 -.707106781186548 .707106781186548 0 -.7071067811
86548 -.707106781186548 0 14 471 583 474 ?475 467 476 28 469 +0 0 475 467 45 50
 473 643 0 475 477 469 0 +-.113 0 .006 1 0 0 0 0 -1 14 475 581 478 ?402 471 479
 28 473 -0 0 402 471 45 50 477 642 0 402 480 473 0 +-.0605 -.0605 .006 .70710678
1186548 .707106781186548 0 -.707106781186548 .707106781186548 0 14 402 579 481 ?
406 475 401 28 477 -0 0 406 475 45 50 480 641 0 406 482 477 0 +0 -.018 .006 0 1
 0 0 0 1 14 406 577 483 ?183 402 404 28 480 -0 0 183 402 45 50 482 640 0 183 424
 480 0 +-.0345 .0345 .006 .707106781186548 -.707106781186547 0 .707106781186547
 .707106781186548 0 14 183 575 484 ?200 406 178 28 482 +0 0 200 406 45 51 424 63
9 0 200 413 482 0 --.0749289321881345 -.013 .006 0 0 -1 .005 -1 0 0 14 200 573 4
85 ?486 183 188 28 424 +0 0 486 183 45 81 1 485 1226 414 200 487 0 484 488 489 1
4 486 543 488 ?490 200 491 28 492 -0 0 490 200 45 81 1 488 1227 414 486 493 0 48
5 494 495 14 490 547 494 ?496 486 497 28 498 -0 0 496 486 45 15 491 542 0 499 48
6 500 51 492 631 0 486 420 498 0 +.095 -.014 .006 0 0 -1 .001499999999999706 -1
 0 0 51 420 630 0 411 501 492 0 +.095 .014 .006 0 0 -1 .0015 -1 0 0 51 498 632 0
 490 492 502 0 +-.081 12490009027033e-29 .006 0 0 -1 .001499999999999706 -1 0 0
 51 502 633 0 496 498 503 0 --.095 -.014 .006 0 0 -1 .0015 -1 0 0 14 496 551 504
 ?505 490 506 28 502 +0 0 505 490 45 51 503 634 0 505 502 507 0 --.095 .014 .006
 0 0 -1 .0015 -1 0 0 14 505 555 508 ?509 496 510 28 503 +0 0 509 496 45 51 507 6
35 0 509 503 511 0 +-.109 -4163336342344335e-32 .006 0 0 -1 .00149999999999994 -
1 0 0 14 509 559 512 ?421 505 513 28 507 -0 0 421 505 45 51 511 636 0 421 507 42
3 0 +.109 -4163336342344335e-32 .006 0 0 -1 .001499999999999982 -1 0 0 14 421 56
3 514 ?412 509 515 28 511 -0 0 412 509 45 51 423 637 0 412 511 413 0 +.081 12490
009027033e-29 .006 0 0 -1 .001499999999999982 -1 0 0 81 1 514 1232 414 421 516 0
 512 416 517 15 515 562 0 518 421 519 17 518 0 515 518 518 0 210 208 0 0 -15 519
 564 0 287 421 0 17 287 0 519 287 287 0 520 285 0 0 +17 520 0 521 520 520 0 287
 285 0 0 -15 521 290 0 520 351 522 14 351 286 523 ?524 193 525 28 501 -0 0 524 1
93 45 15 522 291 0 526 351 527 17 526 0 522 526 526 0 290 288 0 0 -15 527 292 0
 293 351 528 17 293 0 527 293 293 0 529 291 0 0 +15 528 293 0 296 351 530 17 296
 0 528 296 296 0 531 294 0 0 +15 530 294 0 532 351 533 17 532 0 530 532 532 0 29
9 297 0 0 -15 533 295 0 534 351 535 17 534 0 533 534 534 0 302 300 0 0 -15 535 2
96 0 536 351 0 17 536 0 535 536 536 0 305 303 0 0 -17 305 0 537 305 305 0 536 30
3 0 0 +15 537 540 0 305 411 0 17 302 0 500 302 302 0 534 300 0 0 +15 500 544 0 3
02 486 0 17 299 0 538 299 299 0 532 297 0 0 +15 538 548 0 299 490 0 17 531 0 539
 531 531 0 296 294 0 0 -15 539 552 0 531 496 0 17 529 0 540 529 529 0 293 291 0
 0 -15 540 556 0 529 505 0 17 290 0 541 290 290 0 526 288 0 0 +15 541 560 0 290
 509 0 81 1 523 1237 414 351 542 0 543 544 545 14 524 891 544 ?546 351 547 28 54
8 -0 0 546 351 45 14 193 1 543 ?351 411 549 28 550 +0 0 351 411 45 15 525 1000 0
 551 351 552 50 501 469 0 351 550 420 0 +0 0 0 0 0 1 1 0 0 50 550 2 0 193 548 50
1 0 +0 0 .006 0 0 1 1 0 0 51 548 904 0 524 553 550 0 +-.095 0 .0015 0 0 1 .011 1
 0 0 50 553 906 0 546 554 548 0 +-.095 0 .0015 0 0 1 1 0 0 14 546 896 555 ?556 5
24 557 28 553 +0 0 556 524 45 51 554 935 0 556 558 553 0 +.095 2326828918379965e
-32 .0015 0 0 1 .011 1 0 0 14 556 922 559 ?560 546 561 28 554 -0 0 560 546 45 50
 558 937 0 560 562 554 0 +.095 2326828918379965e-32 .0015 0 0 -1 -1 0 0 14 560 9
27 563 ?564 556 565 28 558 -0 0 564 556 45 51 562 987 0 564 566 558 0 +-.095 0 -
999999999999916e-21 0 0 1 .0095 1 0 0 14 564 974 567 ?568 560 569 28 562 -0 0 56
8 560 45 51 566 1023 0 568 0 562 0 +.095 2326828918379965e-32 -999999999999916e-
21 0 0 1 .0095 1 0 0 14 568 1010 570 ?0 564 571 28 566 -0 0 0 564 45 81 1 570 12
43 414 568 572 0 567 0 573 15 571 1013 0 574 568 575 17 574 0 571 574 574 0 576
 577 0 0 +15 575 1014 0 578 568 0 17 578 0 575 578 578 0 551 579 0 0 +17 551 0 5
25 551 551 0 578 579 0 0 -16 579 1009 0 ?578 580 577 581 0 0 18 16 580 970 0 ?58
2 583 579 584 0 0 18 16 577 1006 0 ?574 579 0 585 0 0 18 31 581 1026 0 579 585 5
84 0 -.095 2326828918379965e-32 0 0 0 1 1 0 0 .0095 31 585 1027 0 577 0 581 0 +.
095 2326828918379965e-32 .0015 0 0 1 -1 0 0 .0095 31 584 991 0 580 581 586 0 +-.
095 0 .0015 0 0 1 1 0 0 .0095 31 586 990 0 583 584 587 0 --.095 0 0 0 0 1 1 0 0
 .0095 16 583 973 0 ?588 589 580 586 0 0 18 31 587 939 0 590 586 591 0 +.095 232
6828918379965e-32 .0015 0 0 1 -1 0 0 .011 16 590 916 0 ?592 593 589 587 0 0 18 3
1 591 938 0 589 587 594 0 +.095 2326828918379965e-32 .006 0 0 1 -1 0 0 .011 16 5
89 919 0 ?595 590 583 591 0 0 18 31 594 908 0 234 591 596 0 +-.095 0 .0015 0 0 1
 1 0 0 .011 16 234 885 0 ?597 230 593 594 0 0 18 31 596 907 0 593 594 367 0 +-.0
95 0 .006 0 0 1 1 0 0 .011 16 593 888 0 ?598 234 590 596 0 0 18 31 367 14 0 306
 596 366 0 -.0749289321881345 -.013 .006 0 0 1 1 0 0 .005 16 306 13 0 ?52 130 30
3 367 0 0 18 17 52 0 51 129 48 121 408 306 0 348 +17 598 0 599 598 598 0 600 593
 0 0 +15 599 895 0 598 524 0 17 600 0 601 600 600 0 598 593 0 0 -15 601 880 0 60
0 193 51 17 597 0 602 597 597 0 603 234 0 0 +15 602 898 0 597 546 0 17 603 0 547
 603 603 0 597 234 0 0 -15 547 894 0 603 524 599 17 595 0 604 595 595 0 605 589
 0 0 +15 604 926 0 595 556 0 17 605 0 549 605 605 0 595 589 0 0 -15 549 911 0 60
5 193 601 17 592 0 606 592 592 0 607 590 0 0 +15 606 929 0 592 560 0 17 607 0 56
1 607 607 0 592 590 0 0 -15 561 925 0 607 556 604 17 588 0 608 588 588 0 609 583
 0 0 +15 608 978 0 588 564 0 17 609 0 552 609 609 0 588 583 0 0 -15 552 964 0 60
9 351 349 17 582 0 569 582 582 0 610 580 0 0 +15 569 977 0 582 564 608 17 610 0
 557 610 610 0 582 580 0 0 -15 557 959 0 610 546 602 17 576 0 565 576 576 0 574
 577 0 0 -15 565 994 0 576 560 606 80 1 414 0 611 8001 0 0 0 0 3 5 0 0 0 FFFFTFT
FFFFFFF2 81 1 572 1206 612 568 0 570 613 0 614 81 1 567 1242 414 564 613 0 563 5
70 615 83 3 573 .529411764705882 .549019607843137 .549019607843137 81 1 613 1204
 612 564 0 567 616 572 617 81 1 563 1241 414 560 616 0 559 567 618 83 3 615 .529
411764705882 .549019607843137 .549019607843137 81 1 616 1202 612 560 0 563 619 6
13 620 81 1 559 1240 414 556 619 0 555 563 621 83 3 618 .529411764705882 .549019
607843137 .549019607843137 81 1 619 1200 612 556 0 559 622 616 623 81 1 555 1239
 414 546 622 0 544 559 624 83 3 621 .529411764705882 .549019607843137 .549019607
843137 81 1 622 1198 612 546 0 555 625 619 626 81 1 544 1238 414 524 627 0 523 5
55 628 83 3 624 .529411764705882 .549019607843137 .549019607843137 81 1 627 1194
 612 524 0 544 542 625 629 83 3 628 .529411764705882 .549019607843137 .549019607
843137 80 1 612 630 631 9000 1 1 1 1 1 1 1 1 0 FFFFTFTFFFFFFF1 81 1 542 1192 612
 351 0 523 516 627 632 81 1 625 1196 612 193 0 543 627 622 633 82 1 629 97320972
7 81 1 543 1236 414 193 625 0 417 523 634 82 1 633 878903423 81 1 417 1235 414 4
11 635 0 410 543 636 83 3 634 .529411764705882 .549019607843137 .549019607843137
 81 1 635 1126 612 411 0 417 415 637 638 83 3 636 .529411764705882 .549019607843
137 .549019607843137 81 1 415 1124 612 409 0 410 0 635 639 81 1 637 1128 612 412
 0 416 635 426 640 82 1 638 923074685 81 1 416 1233 414 412 637 0 514 410 641 81
 1 426 1130 612 39 0 425 637 429 642 82 1 640 925565053 81 1 429 1132 612 347 0
 427 426 643 644 82 1 642 930152573 81 1 643 1137 612 344 0 430 429 645 646 82 1
 644 929824893 81 1 430 1210 414 344 643 0 427 435 647 81 1 645 1139 612 357 0 4
35 643 648 649 82 1 646 929693821 81 1 435 1211 414 357 645 0 430 438 650 81 1 6
48 1143 612 436 0 438 645 651 652 82 1 649 929562749 81 1 438 1212 414 436 648 0
 435 442 653 81 1 651 1146 612 439 0 442 648 654 655 82 1 652 929366141 81 1 442
 1213 414 439 651 0 438 446 656 81 1 654 1150 612 443 0 446 651 657 658 82 1 655
 929103997 81 1 446 1214 414 443 654 0 442 450 659 81 1 657 1152 612 447 0 450 6
54 660 661 82 1 658 928776317 81 1 450 1215 414 447 657 0 446 454 662 81 1 660 1
155 612 451 0 454 657 663 664 82 1 661 928645245 81 1 454 1216 414 451 660 0 450
 458 665 81 1 663 1157 612 455 0 458 660 666 667 82 1 664 928514173 81 1 458 121
7 414 455 663 0 454 462 668 81 1 666 1159 612 459 0 462 663 669 670 82 1 667 928
317565 81 1 462 1218 414 459 666 0 458 466 671 81 1 669 1161 612 463 0 466 666 6
72 673 82 1 670 928055421 81 1 466 1219 414 463 669 0 462 470 674 81 1 672 1163
 612 467 0 470 669 675 676 82 1 673 927727741 81 1 470 1220 414 467 672 0 466 47
4 677 81 1 675 1165 612 471 0 474 672 678 679 82 1 676 927596669 81 1 474 1221 4
14 471 675 0 470 478 680 81 1 678 1168 612 475 0 478 675 681 682 82 1 679 927400
061 81 1 478 1222 414 475 678 0 474 481 683 81 1 681 1170 612 402 0 481 678 684
 685 82 1 682 927137917 81 1 481 1223 414 402 681 0 478 483 686 81 1 684 1173 61
2 406 0 483 681 687 688 82 1 685 926875773 81 1 483 1224 414 406 684 0 481 484 6
89 81 1 687 1175 612 183 0 484 684 487 690 82 1 688 926548093 81 1 484 1225 414
 183 687 0 483 485 691 81 1 487 1178 612 200 0 485 687 493 692 82 1 690 92641702
1 81 1 493 1180 612 486 0 488 487 693 694 82 1 692 926220413 81 1 693 1182 612 4
90 0 494 493 695 696 82 1 694 923467901 81 1 494 1228 414 490 693 0 488 504 697
 81 1 695 1184 612 496 0 504 693 698 699 82 1 696 923861117 81 1 504 1229 414 49
6 695 0 494 508 700 81 1 698 1186 612 505 0 508 695 701 702 82 1 699 924254333 8
1 1 508 1230 414 505 698 0 504 512 703 81 1 701 1188 612 509 0 512 698 516 704 8
2 1 702 924516477 81 1 512 1231 414 509 701 0 508 514 705 81 1 516 1190 612 421
 0 514 701 542 706 82 1 704 924778621 82 1 706 925171837 83 3 705 .5294117647058
82 .549019607843137 .549019607843137 83 3 703 .529411764705882 .549019607843137
 .549019607843137 83 3 700 .529411764705882 .549019607843137 .549019607843137 83
 3 697 .529411764705882 .549019607843137 .549019607843137 83 3 691 .529411764705
882 .549019607843137 .549019607843137 83 3 689 .529411764705882 .549019607843137
 .549019607843137 83 3 686 .529411764705882 .549019607843137 .549019607843137 83
 3 683 .529411764705882 .549019607843137 .549019607843137 83 3 680 .529411764705
882 .549019607843137 .549019607843137 83 3 677 .529411764705882 .549019607843137
 .549019607843137 83 3 674 .529411764705882 .549019607843137 .549019607843137 83
 3 671 .529411764705882 .549019607843137 .549019607843137 83 3 668 .529411764705
882 .549019607843137 .549019607843137 83 3 665 .529411764705882 .549019607843137
 .549019607843137 83 3 662 .529411764705882 .549019607843137 .549019607843137 83
 3 659 .529411764705882 .549019607843137 .549019607843137 83 3 656 .529411764705
882 .549019607843137 .549019607843137 83 3 653 .529411764705882 .549019607843137
 .549019607843137 83 3 650 .529411764705882 .549019607843137 .549019607843137 83
 3 647 .529411764705882 .549019607843137 .549019607843137 83 3 641 .529411764705
882 .549019607843137 .549019607843137 82 1 639 925958269 82 1 632 907280513 79 1
4 631 SWEntUnchanged82 1 626 971243649 82 1 623 977207423 82 1 620 975241345 82
 1 617 1047330945 82 1 614 1100218497 79 15 611 SDL/TYSA_COLOUR83 3 545 .5294117
64705882 .549019607843137 .549019607843137 17 210 0 707 210 210 0 518 208 0 0 +1
5 707 6 0 210 193 708 15 708 7 0 213 193 709 17 213 0 708 213 213 0 710 211 0 0
 +15 709 8 0 711 193 712 17 711 0 709 711 711 0 216 214 0 0 -15 712 9 0 713 193
 714 17 713 0 712 713 713 0 219 217 0 0 -15 714 10 0 222 193 715 17 222 0 714 22
2 222 0 716 220 0 0 +15 715 11 0 225 193 717 17 225 0 715 225 225 0 499 223 0 0
 +15 717 12 0 228 193 0 17 228 0 717 228 228 0 718 226 0 0 +17 718 0 419 718 718
 0 228 226 0 0 -15 419 538 0 718 411 537 17 499 0 491 499 499 0 225 223 0 0 -17
 716 0 497 716 716 0 222 220 0 0 -15 497 546 0 716 490 538 17 219 0 506 219 219
 0 713 217 0 0 +15 506 550 0 219 496 539 17 216 0 510 216 216 0 711 214 0 0 +15
 510 554 0 216 505 540 17 710 0 513 710 710 0 213 211 0 0 -15 513 558 0 710 509
 541 83 3 517 .529411764705882 .549019607843137 .549019607843137 83 3 495 .52941
1764705882 .549019607843137 .549019607843137 83 3 489 .529411764705882 .54901960
7843137 .549019607843137 15 479 580 0 106 475 0 17 106 0 479 400 103 104 719 271
 0 315 +17 400 0 479 399 106 169 315 313 0 396 -17 103 0 479 106 399 101 168 316
 0 719 +17 719 0 349 270 403 101 106 271 0 720 -17 315 0 401 109 396 104 400 313
 0 403 +17 403 0 349 719 405 104 109 273 0 0 -17 270 0 349 267 719 98 720 268 0
 0 +17 720 0 476 168 100 101 270 268 0 0 -15 476 582 0 720 471 0 17 168 0 476 39
2 720 166 103 316 0 399 -17 100 0 476 720 392 98 165 318 0 721 +17 392 0 476 100
 168 163 398 390 0 0 +17 165 0 472 389 721 163 100 318 0 722 -17 721 0 472 165 9
7 98 267 265 0 270 -15 472 584 0 721 467 0 17 97 0 472 721 389 95 723 320 0 264
 +17 267 0 349 724 270 95 721 265 0 0 +17 724 0 349 725 267 92 264 262 0 0 -17 7
25 0 349 259 724 89 94 260 0 726 -17 264 0 468 723 324 95 724 262 0 267 +15 468
 586 0 264 463 0 17 723 0 468 727 264 160 97 320 0 389 -17 324 0 468 264 727 92
 728 322 0 724 +17 727 0 468 324 723 157 162 385 0 0 -17 728 0 464 729 94 157 32
4 322 0 727 -15 464 588 0 94 459 0 17 729 0 464 91 728 154 159 383 0 730 -17 94
 0 464 728 91 92 725 260 0 324 +17 91 0 464 94 729 89 156 325 0 725 +17 156 0 46
0 382 726 154 91 325 0 729 -15 460 590 0 726 455 0 17 382 0 460 88 156 151 730 3
80 0 0 +17 726 0 460 156 88 89 259 257 0 0 -17 88 0 460 726 382 86 153 327 0 731
 +17 259 0 349 256 725 86 726 257 0 0 +17 256 0 349 253 259 83 731 254 0 0 +17 2
53 0 349 732 256 80 733 251 0 0 +17 731 0 456 153 85 86 256 254 0 259 -15 456 59
2 0 731 451 0 17 153 0 456 379 731 151 88 327 0 734 -17 85 0 456 731 379 83 150
 329 0 733 +17 379 0 456 85 153 148 734 377 0 0 +17 150 0 452 376 733 148 85 329
 0 735 -17 733 0 452 150 82 83 253 251 0 256 -15 452 594 0 733 447 0 17 82 0 452
 733 376 80 736 331 0 250 +17 376 0 452 82 150 145 735 374 0 0 +17 736 0 448 737
 250 145 82 331 0 376 -17 250 0 448 736 335 80 732 248 0 253 +15 448 596 0 250 4
43 0 17 335 0 448 250 737 77 738 333 0 732 +17 732 0 349 354 253 77 250 248 0 0
 -17 354 0 349 245 732 74 79 246 0 355 -17 79 0 444 738 76 77 354 246 0 335 +17
 355 0 440 141 73 74 245 243 0 0 -15 440 600 0 355 436 0 17 141 0 440 362 355 13
9 76 336 0 739 -17 73 0 440 355 362 71 138 338 0 353 +17 362 0 440 73 141 136 36
1 364 0 0 +17 361 0 51 144 359 139 362 364 0 0 -17 144 0 51 147 361 142 739 370
 0 738 +17 147 0 51 735 144 145 737 372 0 736 +17 739 0 444 76 738 139 144 370 0
 361 -17 738 0 444 739 79 142 335 333 0 737 -15 444 598 0 79 439 0 17 737 0 448
 335 736 142 147 372 0 0 -17 76 0 444 79 739 74 141 336 0 354 +17 735 0 51 734 1
47 148 376 374 0 379 -17 734 0 51 730 735 151 379 377 0 382 -17 730 0 51 159 734
 154 382 380 0 0 -17 159 0 51 162 730 157 729 383 0 728 +17 162 0 51 722 159 160
 727 385 0 723 +17 722 0 51 398 162 163 389 387 0 392 -17 398 0 51 171 722 166 3
92 390 0 0 -17 389 0 472 97 165 160 722 387 0 0 +17 399 0 479 103 400 166 171 39
3 0 398 -83 3 431 .529411764705882 .549019607843137 .549019607843137 83 3 428 .5
29411764705882 .549019607843137 .549019607843137 15 422 566 0 740 412 741 17 740
 0 422 740 740 0 207 202 0 0 -15 741 568 0 284 412 0 17 284 0 741 284 284 0 742
 282 0 0 +17 742 0 352 742 742 0 284 282 0 0 -15 352 289 0 742 351 521 17 207 0
 194 207 207 0 740 202 0 0 +15 194 5 0 207 193 707 83 3 418 .529411764705882 .54
9019607843137 .549019607843137 19 40 659 0 18 0 32 28 S0 74 20 38 10 0 0 743 744
 745 572 746 747 748 36 570 25 0 0 0 0 0 0 0 0 0 0 81 2 743 197 749 18 0 744 0 0
 0 750 81 5 744 198 751 18 743 745 0 0 752 0 0 0 0 81 2 745 818 753 18 744 746 0
 0 0 754 81 1 746 1040 755 18 745 747 0 0 756 81 2 747 1078 757 18 746 748 0 0 0
 758 81 2 748 1122 759 18 747 36 0 0 0 0 81 2 36 1123 760 18 748 25 0 0 0 761 80
 2 760 762 763 9000 0 0 0 0 3 5 0 0 0 FFTFFFFFFFFFFF9 1 82 1 761 103 79 12 763 A
TOM_ID_200180 2 759 764 765 9000 0 0 0 0 3 5 0 0 0 FFTFFFFFFFFFFF9 1 79 16 765 B
ODY_RECIPE_200180 2 757 766 767 9000 0 0 0 0 3 5 0 0 0 FFTFFFFFFFFFFF9 1 82 1 75
8 1 79 24 767 BODY_IN_LIGHTWEIGHT_PERM80 1 755 768 769 9000 1 1 1 1 1 1 1 1 0 FF
TFFFFFFFFFFF1 82 1 756 144480 79 10 769 BODY_MATCH80 2 753 770 771 9000 0 0 0 0
 3 5 0 0 0 FFTFFFFFFFFFFF9 1 82 1 754 67 79 30 771 LAST_BODY_MODIFYING_FEATURE_I
D80 5 751 772 773 9000 0 0 0 0 3 6 0 0 0 FFTTTTTTFTTFTT2 2 2 2 2 83 1 752 1 79 1
9 773 BODY_SCALING_FACTOR80 2 749 774 775 9000 0 0 0 0 3 5 0 0 0 FFTFFFFFFFFFFF9
 1 82 1 750 122 79 19 775 ENT_TIME_STAMP_200180 1 35 776 777 8017 0 0 0 0 0 0 0
 0 0 TTTTTTTTTTTTTF3 84 27 37 5电机201704ROB腿-02（图上）79 13 777 SDL/TYSA_NAME
81 1 16 6504 35 8 778 0 0 0 779 70 17 0 4 T8 0 0 9 20 1 780 780 13 19 41 0 8 0 7
81 0 0 782 0 51 20 82 0 781 783 0 0 +0 .0290398978433598 0 0 1 0 .018 0 0 1 31 2
1 88 0 23 784 0 0 +0 .0167867763904654 0 0 1 0 0 0 1 .018 19 22 45 0 8 782 0 785
 V0 16 23 69 0 ?786 0 787 21 0 0 8 17 786 0 788 786 786 0 789 23 0 0 +16 787 64
 0 ?790 23 791 784 0 0 8 17 790 0 792 790 790 0 793 787 0 0 +16 791 59 0 ?794 78
7 795 796 0 0 8 31 784 87 0 787 796 21 0 +0 .0167867763904654 0 0 1 0 0 0 1 .011
 31 796 86 0 791 797 784 0 +0 .0142867763904654 0 0 1 0 0 0 1 .011 31 797 85 0 7
95 798 796 0 +0 .0142867763904654 0 0 1 0 0 0 1 .0095 16 795 54 0 ?799 791 800 7
97 0 0 8 31 798 84 0 800 801 797 0 +0 .0122867763904654 0 0 1 0 0 0 1 .0095 16 8
00 49 0 ?802 795 803 798 0 0 8 31 801 83 0 803 804 798 0 +0 .0122867763904654 0
 0 1 0 0 0 1 .018 16 803 47 0 ?805 800 806 801 0 0 8 31 804 165 0 806 807 801 0
 +.014 .0167867763904654 0 0 1 0 0 0 1 .0017 16 806 140 0 ?808 803 809 804 0 0 8
 31 807 166 0 809 810 804 0 +.014 .0122867763904654 0 0 -1 0 0 0 -1 .0017 16 809
 141 0 ?811 806 812 807 0 0 8 31 810 209 0 812 813 807 0 +-488807387438039e-31 .
0167867763904654 -.014 0 1 0 0 0 1 .0017 16 812 184 0 ?814 809 815 810 0 0 8 31
 813 210 0 815 816 810 0 +-488807387438039e-31 .0122867763904654 -.014 0 -1 0 0
 0 -1 .0017 16 815 185 0 ?817 812 818 813 0 0 8 31 816 253 0 818 819 813 0 +-.01
4 .0167867763904654 977614774876077e-31 0 1 0 0 0 1 .0017 16 818 228 0 ?820 815
 821 816 0 0 8 31 819 254 0 821 822 816 0 +-.014 .0122867763904654 9776147748760
77e-31 0 -1 0 0 0 -1 .0017 16 821 229 0 ?823 818 824 819 0 0 8 31 822 297 0 824
 825 819 0 +1466422162314116e-31 .0167867763904654 .014 0 1 0 0 0 1 .0017 16 824
 272 0 ?826 821 827 822 0 0 8 31 825 298 0 827 0 822 0 +1466422162314116e-31 .01
22867763904654 .014 0 -1 0 0 0 -1 .0017 16 827 273 0 ?828 824 0 825 0 0 8 17 828
 0 829 828 828 0 830 827 0 0 +15 829 285 0 828 831 0 17 830 0 832 830 830 0 828
 827 0 0 -15 832 259 0 830 833 834 14 833 52 835 ?836 837 832 19 838 +0 0 836 83
7 785 15 834 215 0 839 833 840 17 839 0 834 839 839 0 823 821 0 0 -15 840 171 0
 841 833 842 17 841 0 840 841 841 0 817 815 0 0 -15 842 127 0 843 833 844 17 843
 0 842 843 843 0 811 809 0 0 -15 844 105 0 802 833 845 17 802 0 844 802 802 0 84
6 800 0 0 +15 845 51 0 847 833 0 17 847 0 845 847 847 0 805 803 0 0 -17 805 0 84
8 805 805 0 847 803 0 0 +15 848 106 0 805 781 849 14 781 75 850 ?851 0 848 19 20
 +0 0 851 0 785 15 849 74 0 789 781 0 17 789 0 849 789 789 0 786 23 0 0 -81 1 85
0 6494 414 781 852 0 0 853 854 14 851 72 853 ?855 781 856 19 783 +0 0 855 781 78
5 13 785 44 0 0 0 0 0 0 22 781 81 1 853 6495 414 851 857 0 850 858 859 14 855 67
 858 ?860 851 792 19 861 +0 0 860 851 785 15 856 265 0 862 851 863 50 783 81 0 8
51 861 20 0 +-.018 .0167867763904654 0 0 1 0 0 0 1 51 861 80 0 855 864 783 0 -0
 .0290398978433598 0 0 1 0 .011 0 0 1 50 864 79 0 860 865 861 0 +-.011 .01428677
63904654 0 0 1 0 0 0 1 14 860 62 866 ?837 855 867 19 864 +0 0 837 855 785 51 865
 78 0 837 838 864 0 -0 .0290398978433598 0 0 1 0 .0095 0 0 1 14 837 57 868 ?833
 860 869 19 865 +0 0 833 860 785 50 838 77 0 833 870 865 0 +-.0095 .012286776390
4654 0 0 -1 0 0 0 -1 51 870 162 0 836 871 838 0 +.014 .0222867763904654 0 0 -1 0
 .0017 0 0 -1 14 836 149 872 ?873 833 874 19 870 -0 0 873 833 785 51 871 206 0 8
73 875 870 0 +-488807387438039e-31 .0222867763904654 -.014 0 -1 0 .0017 0 0 -1 1
4 873 193 876 ?877 836 878 19 871 -0 0 877 836 785 51 875 250 0 877 879 871 0 +-
.014 .0222867763904654 977614774876077e-31 0 -1 0 .0017 0 0 -1 14 877 237 880 ?8
31 873 881 19 875 -0 0 831 873 785 51 879 294 0 831 0 875 0 +1466422162314116e-3
1 .0222867763904654 .014 0 -1 0 .0017 0 0 -1 14 831 281 882 ?0 877 883 19 879 -0
 0 0 877 785 81 1 882 6503 414 831 884 0 880 0 885 15 883 284 0 826 831 829 17 8
26 0 883 826 826 0 862 824 0 0 +17 862 0 856 862 862 0 826 824 0 0 -81 1 884 649
2 612 831 0 882 886 0 887 81 1 880 6502 414 877 886 0 876 882 888 83 3 885 .5294
11764705882 .549019607843137 .549019607843137 81 1 886 6490 612 877 0 880 889 88
4 890 81 1 876 6501 414 873 889 0 872 880 891 83 3 888 .529411764705882 .5490196
07843137 .549019607843137 81 1 889 6488 612 873 0 876 892 886 893 81 1 872 6500
 414 836 892 0 835 876 894 83 3 891 .529411764705882 .549019607843137 .549019607
843137 81 1 892 6486 612 836 0 872 895 889 896 81 1 835 6499 414 833 897 0 868 8
72 898 83 3 894 .529411764705882 .549019607843137 .549019607843137 81 1 897 6474
 612 833 0 835 0 852 899 81 1 868 6498 414 837 895 0 866 835 900 83 3 898 .52941
1764705882 .549019607843137 .549019607843137 81 1 895 6484 612 837 0 868 901 892
 902 81 1 866 6497 414 860 901 0 858 868 903 83 3 900 .529411764705882 .54901960
7843137 .549019607843137 81 1 901 6482 612 860 0 866 904 895 905 81 1 858 6496 4
14 855 904 0 853 866 906 83 3 903 .529411764705882 .549019607843137 .54901960784
3137 81 1 904 6480 612 855 0 858 857 901 907 83 3 906 .529411764705882 .54901960
7843137 .549019607843137 81 1 857 6478 612 851 0 853 852 904 908 82 1 907 -21133
39288 81 1 852 6476 612 781 0 850 897 857 909 82 1 908 -2112749460 82 1 909 -211
2421784 82 1 905 -2113929112 82 1 902 -2114518936 82 1 899 -2115108756 82 1 896
 442630252 82 1 893 446627948 82 1 890 450560108 82 1 887 454492268 15 881 240 0
 820 877 910 17 820 0 881 820 820 0 911 818 0 0 +15 910 241 0 823 877 0 17 823 0
 910 823 823 0 839 821 0 0 +17 911 0 863 911 911 0 820 818 0 0 -15 863 221 0 911
 851 912 15 912 177 0 913 851 914 17 913 0 912 913 913 0 814 812 0 0 -15 914 133
 0 915 851 788 17 915 0 914 915 915 0 808 806 0 0 -15 788 101 0 786 851 916 15 9
16 71 0 793 851 0 17 793 0 916 793 793 0 790 787 0 0 -17 808 0 874 808 808 0 915
 806 0 0 +15 874 152 0 808 836 917 15 917 153 0 811 836 0 17 811 0 917 811 811 0
 843 809 0 0 +17 814 0 878 814 814 0 913 812 0 0 +15 878 196 0 814 873 918 15 91
8 197 0 817 873 0 17 817 0 918 817 817 0 841 815 0 0 +15 869 104 0 799 837 919 1
7 799 0 869 799 799 0 920 795 0 0 +15 919 56 0 846 837 0 17 846 0 919 846 846 0
 802 800 0 0 -17 920 0 921 920 920 0 799 795 0 0 -15 921 61 0 920 860 0 15 867 1
03 0 794 860 921 17 794 0 867 794 794 0 922 791 0 0 +17 922 0 923 922 922 0 794
 791 0 0 -15 923 66 0 922 855 0 15 792 102 0 790 855 923 83 3 859 .5294117647058
82 .549019607843137 .549019607843137 83 3 854 .529411764705882 .549019607843137
 .549019607843137 19 782 40 0 8 0 22 19 S0 74 20 780 9 0 0 924 884 925 926 927 9
28 778 882 16 0 0 0 0 0 0 0 0 0 0 0 81 2 924 113 749 8 0 925 0 0 0 929 81 1 925
 316 755 8 924 926 0 0 930 81 2 926 4613 757 8 925 927 0 0 0 931 81 2 927 6445 7
53 8 926 928 0 0 0 932 81 2 928 6472 759 8 927 778 0 0 0 0 81 2 778 6473 760 8 9
28 16 0 0 0 933 82 1 933 102 82 1 932 44 82 1 931 1 82 1 930 4030893 82 1 929 10
5 84 20 779 13电机201704ROB腿-0881 1 6 6504 35 3 934 0 0 0 935 70 7 0 4 T3 0 0 9
 20 1 936 936 13 9 41 0 3 0 937 0 0 938 0 51 10 82 0 937 939 0 0 +0 .02903989784
33598 0 0 1 0 .018 0 0 1 31 11 88 0 13 940 0 0 +0 .0167867763904654 0 0 1 0 0 0
 1 .018 19 12 45 0 3 938 0 941 V0 16 13 69 0 ?942 0 943 11 0 0 3 17 942 0 944 94
2 942 0 945 13 0 0 +16 943 64 0 ?946 13 947 940 0 0 3 17 946 0 948 946 946 0 949
 943 0 0 +16 947 59 0 ?950 943 951 952 0 0 3 31 940 87 0 943 952 11 0 +0 .016786
7763904654 0 0 1 0 0 0 1 .011 31 952 86 0 947 953 940 0 +0 .0142867763904654 0 0
 1 0 0 0 1 .011 31 953 85 0 951 954 952 0 +0 .0142867763904654 0 0 1 0 0 0 1 .00
95 16 951 54 0 ?955 947 956 953 0 0 3 31 954 84 0 956 957 953 0 +0 .012286776390
4654 0 0 1 0 0 0 1 .0095 16 956 49 0 ?958 951 959 954 0 0 3 31 957 83 0 959 960
 954 0 +0 .0122867763904654 0 0 1 0 0 0 1 .018 16 959 47 0 ?961 956 962 957 0 0
 3 31 960 165 0 962 963 957 0 +.014 .0167867763904654 0 0 1 0 0 0 1 .0017 16 962
 140 0 ?964 959 965 960 0 0 3 31 963 166 0 965 966 960 0 +.014 .0122867763904654
 0 0 -1 0 0 0 -1 .0017 16 965 141 0 ?967 962 968 963 0 0 3 31 966 209 0 968 969
 963 0 +-488807387438039e-31 .0167867763904654 -.014 0 1 0 0 0 1 .0017 16 968 18
4 0 ?970 965 971 966 0 0 3 31 969 210 0 971 972 966 0 +-488807387438039e-31 .012
2867763904654 -.014 0 -1 0 0 0 -1 .0017 16 971 185 0 ?973 968 974 969 0 0 3 31 9
72 253 0 974 975 969 0 +-.014 .0167867763904654 977614774876077e-31 0 1 0 0 0 1
 .0017 16 974 228 0 ?976 971 977 972 0 0 3 31 975 254 0 977 978 972 0 +-.014 .01
22867763904654 977614774876077e-31 0 -1 0 0 0 -1 .0017 16 977 229 0 ?979 974 980
 975 0 0 3 31 978 297 0 980 981 975 0 +1466422162314116e-31 .0167867763904654 .0
14 0 1 0 0 0 1 .0017 16 980 272 0 ?982 977 983 978 0 0 3 31 981 298 0 983 0 978
 0 +1466422162314116e-31 .0122867763904654 .014 0 -1 0 0 0 -1 .0017 16 983 273 0
 ?984 980 0 981 0 0 3 17 984 0 985 984 984 0 986 983 0 0 +15 985 285 0 984 987 0
 17 986 0 988 986 986 0 984 983 0 0 -15 988 259 0 986 989 990 14 989 52 991 ?992
 993 988 9 994 +0 0 992 993 941 15 990 215 0 995 989 996 17 995 0 990 995 995 0
 979 977 0 0 -15 996 171 0 997 989 998 17 997 0 996 997 997 0 973 971 0 0 -15 99
8 127 0 999 989 1000 17 999 0 998 999 999 0 967 965 0 0 -15 1000 105 0 958 989 1
001 17 958 0 1000 958 958 0 1002 956 0 0 +15 1001 51 0 1003 989 0 17 1003 0 1001
 1003 1003 0 961 959 0 0 -17 961 0 1004 961 961 0 1003 959 0 0 +15 1004 106 0 96
1 937 1005 14 937 75 1006 ?1007 0 1004 9 10 +0 0 1007 0 941 15 1005 74 0 945 937
 0 17 945 0 1005 945 945 0 942 13 0 0 -81 1 1006 6494 414 937 1008 0 0 1009 1010
 14 1007 72 1009 ?1011 937 1012 9 939 +0 0 1011 937 941 13 941 44 0 0 0 0 0 0 12
 937 81 1 1009 6495 414 1007 1013 0 1006 1014 1015 14 1011 67 1014 ?1016 1007 94
8 9 1017 +0 0 1016 1007 941 15 1012 265 0 1018 1007 1019 50 939 81 0 1007 1017 1
0 0 +-.018 .0167867763904654 0 0 1 0 0 0 1 51 1017 80 0 1011 1020 939 0 -0 .0290
398978433598 0 0 1 0 .011 0 0 1 50 1020 79 0 1016 1021 1017 0 +-.011 .0142867763
904654 0 0 1 0 0 0 1 14 1016 62 1022 ?993 1011 1023 9 1020 +0 0 993 1011 941 51
 1021 78 0 993 994 1020 0 -0 .0290398978433598 0 0 1 0 .0095 0 0 1 14 993 57 102
4 ?989 1016 1025 9 1021 +0 0 989 1016 941 50 994 77 0 989 1026 1021 0 +-.0095 .0
122867763904654 0 0 -1 0 0 0 -1 51 1026 162 0 992 1027 994 0 +.014 .022286776390
4654 0 0 -1 0 .0017 0 0 -1 14 992 149 1028 ?1029 989 1030 9 1026 -0 0 1029 989 9
41 51 1027 206 0 1029 1031 1026 0 +-488807387438039e-31 .0222867763904654 -.014
 0 -1 0 .0017 0 0 -1 14 1029 193 1032 ?1033 992 1034 9 1027 -0 0 1033 992 941 51
 1031 250 0 1033 1035 1027 0 +-.014 .0222867763904654 977614774876077e-31 0 -1 0
 .0017 0 0 -1 14 1033 237 1036 ?987 1029 1037 9 1031 -0 0 987 1029 941 51 1035 2
94 0 987 0 1031 0 +1466422162314116e-31 .0222867763904654 .014 0 -1 0 .0017 0 0
 -1 14 987 281 1038 ?0 1033 1039 9 1035 -0 0 0 1033 941 81 1 1038 6503 414 987 1
040 0 1036 0 1041 15 1039 284 0 982 987 985 17 982 0 1039 982 982 0 1018 980 0 0
 +17 1018 0 1012 1018 1018 0 982 980 0 0 -81 1 1040 6492 612 987 0 1038 1042 0 1
043 81 1 1036 6502 414 1033 1042 0 1032 1038 1044 83 3 1041 .529411764705882 .54
9019607843137 .549019607843137 81 1 1042 6490 612 1033 0 1036 1045 1040 1046 81
 1 1032 6501 414 1029 1045 0 1028 1036 1047 83 3 1044 .529411764705882 .54901960
7843137 .549019607843137 81 1 1045 6488 612 1029 0 1032 1048 1042 1049 81 1 1028
 6500 414 992 1048 0 991 1032 1050 83 3 1047 .529411764705882 .549019607843137 .
549019607843137 81 1 1048 6486 612 992 0 1028 1051 1045 1052 81 1 991 6499 414 9
89 1053 0 1024 1028 1054 83 3 1050 .529411764705882 .549019607843137 .5490196078
43137 81 1 1053 6474 612 989 0 991 0 1008 1055 81 1 1024 6498 414 993 1051 0 102
2 991 1056 83 3 1054 .529411764705882 .549019607843137 .549019607843137 81 1 105
1 6484 612 993 0 1024 1057 1048 1058 81 1 1022 6497 414 1016 1057 0 1014 1024 10
59 83 3 1056 .529411764705882 .549019607843137 .549019607843137 81 1 1057 6482 6
12 1016 0 1022 1060 1051 1061 81 1 1014 6496 414 1011 1060 0 1009 1022 1062 83 3
 1059 .529411764705882 .549019607843137 .549019607843137 81 1 1060 6480 612 1011
 0 1014 1013 1057 1063 83 3 1062 .529411764705882 .549019607843137 .549019607843
137 81 1 1013 6478 612 1007 0 1009 1008 1060 1064 82 1 1063 -2113339288 81 1 100
8 6476 612 937 0 1006 1053 1013 1065 82 1 1064 -2112749460 82 1 1065 -2112421784
 82 1 1061 -2113929112 82 1 1058 -2114518936 82 1 1055 -2115108756 82 1 1052 442
630252 82 1 1049 446627948 82 1 1046 450560108 82 1 1043 454492268 15 1037 240 0
 976 1033 1066 17 976 0 1037 976 976 0 1067 974 0 0 +15 1066 241 0 979 1033 0 17
 979 0 1066 979 979 0 995 977 0 0 +17 1067 0 1019 1067 1067 0 976 974 0 0 -15 10
19 221 0 1067 1007 1068 15 1068 177 0 1069 1007 1070 17 1069 0 1068 1069 1069 0
 970 968 0 0 -15 1070 133 0 1071 1007 944 17 1071 0 1070 1071 1071 0 964 962 0 0
 -15 944 101 0 942 1007 1072 15 1072 71 0 949 1007 0 17 949 0 1072 949 949 0 946
 943 0 0 -17 964 0 1030 964 964 0 1071 962 0 0 +15 1030 152 0 964 992 1073 15 10
73 153 0 967 992 0 17 967 0 1073 967 967 0 999 965 0 0 +17 970 0 1034 970 970 0
 1069 968 0 0 +15 1034 196 0 970 1029 1074 15 1074 197 0 973 1029 0 17 973 0 107
4 973 973 0 997 971 0 0 +15 1025 104 0 955 993 1075 17 955 0 1025 955 955 0 1076
 951 0 0 +15 1075 56 0 1002 993 0 17 1002 0 1075 1002 1002 0 958 956 0 0 -17 107
6 0 1077 1076 1076 0 955 951 0 0 -15 1077 61 0 1076 1016 0 15 1023 103 0 950 101
6 1077 17 950 0 1023 950 950 0 1078 947 0 0 +17 1078 0 1079 1078 1078 0 950 947
 0 0 -15 1079 66 0 1078 1011 0 15 948 102 0 946 1011 1079 83 3 1015 .52941176470
5882 .549019607843137 .549019607843137 83 3 1010 .529411764705882 .5490196078431
37 .549019607843137 19 938 40 0 3 0 12 9 S0 74 20 936 9 0 0 1080 1040 1081 1082
 1083 1084 934 1038 6 0 0 0 0 0 0 0 0 0 0 0 81 2 1080 113 749 3 0 1081 0 0 0 108
5 81 1 1081 316 755 3 1080 1082 0 0 1086 81 2 1082 4613 757 3 1081 1083 0 0 0 10
87 81 2 1083 6445 753 3 1082 1084 0 0 0 1088 81 2 1084 6472 759 3 1083 934 0 0 0
 0 81 2 934 6473 760 3 1084 6 0 0 0 1089 82 1 1089 102 82 1 1088 44 82 1 1087 1
 82 1 1086 4030893 82 1 1085 105 84 20 935 13电机201704ROB腿-081 0 
